<mxfile host="app.diagrams.net" modified="2024-03-20T23:48:19.868Z" agent="Mozilla/5.0 (Windows NT 10.0; Win64; x64) AppleWebKit/537.36 (KHTML, like Gecko) Chrome/122.0.0.0 Safari/537.36" etag="bNO89X4S_2MN5UgpFrtO" version="24.0.7" type="device">
  <diagram name="PÃ¡gina-1" id="tKeKXeLm_XxY9KAngwV8">
    <mxGraphModel dx="1356" dy="706" grid="1" gridSize="10" guides="1" tooltips="1" connect="1" arrows="1" fold="1" page="1" pageScale="1" pageWidth="827" pageHeight="1169" math="0" shadow="0">
      <root>
        <mxCell id="0" />
        <mxCell id="1" parent="0" />
        <mxCell id="iYjMak04jSnYSCJ5bUZE-1" value="CASO 1" style="text;html=1;align=center;verticalAlign=middle;whiteSpace=wrap;rounded=0;" vertex="1" parent="1">
          <mxGeometry x="40" y="40" width="110" height="70" as="geometry" />
        </mxCell>
        <mxCell id="iYjMak04jSnYSCJ5bUZE-47" value="" style="edgeStyle=orthogonalEdgeStyle;rounded=0;orthogonalLoop=1;jettySize=auto;html=1;endArrow=none;endFill=0;" edge="1" parent="1" source="iYjMak04jSnYSCJ5bUZE-2" target="iYjMak04jSnYSCJ5bUZE-46">
          <mxGeometry relative="1" as="geometry" />
        </mxCell>
        <mxCell id="iYjMak04jSnYSCJ5bUZE-2" value="PERSONA" style="rounded=0;whiteSpace=wrap;html=1;" vertex="1" parent="1">
          <mxGeometry x="170" y="470" width="120" height="60" as="geometry" />
        </mxCell>
        <mxCell id="iYjMak04jSnYSCJ5bUZE-26" value="" style="edgeStyle=orthogonalEdgeStyle;rounded=0;orthogonalLoop=1;jettySize=auto;html=1;endArrow=none;endFill=0;startArrow=classic;startFill=1;" edge="1" parent="1" source="iYjMak04jSnYSCJ5bUZE-4" target="iYjMak04jSnYSCJ5bUZE-25">
          <mxGeometry relative="1" as="geometry" />
        </mxCell>
        <mxCell id="iYjMak04jSnYSCJ5bUZE-44" value="" style="edgeStyle=orthogonalEdgeStyle;rounded=0;orthogonalLoop=1;jettySize=auto;html=1;endArrow=none;endFill=0;" edge="1" parent="1" source="iYjMak04jSnYSCJ5bUZE-4" target="iYjMak04jSnYSCJ5bUZE-43">
          <mxGeometry relative="1" as="geometry" />
        </mxCell>
        <mxCell id="iYjMak04jSnYSCJ5bUZE-48" style="edgeStyle=orthogonalEdgeStyle;rounded=0;orthogonalLoop=1;jettySize=auto;html=1;exitX=0;exitY=1;exitDx=0;exitDy=0;entryX=0.5;entryY=0;entryDx=0;entryDy=0;endArrow=none;endFill=0;" edge="1" parent="1" source="iYjMak04jSnYSCJ5bUZE-4" target="iYjMak04jSnYSCJ5bUZE-46">
          <mxGeometry relative="1" as="geometry">
            <Array as="points">
              <mxPoint x="374" y="280" />
            </Array>
          </mxGeometry>
        </mxCell>
        <mxCell id="iYjMak04jSnYSCJ5bUZE-4" value="VIVIENDA" style="rounded=0;whiteSpace=wrap;html=1;" vertex="1" parent="1">
          <mxGeometry x="420" y="220" width="120" height="60" as="geometry" />
        </mxCell>
        <mxCell id="iYjMak04jSnYSCJ5bUZE-12" value="" style="edgeStyle=orthogonalEdgeStyle;rounded=0;orthogonalLoop=1;jettySize=auto;html=1;endArrow=none;endFill=0;" edge="1" parent="1" source="iYjMak04jSnYSCJ5bUZE-6" target="iYjMak04jSnYSCJ5bUZE-4">
          <mxGeometry relative="1" as="geometry" />
        </mxCell>
        <mxCell id="iYjMak04jSnYSCJ5bUZE-6" value="&lt;u&gt;NUMERO&lt;/u&gt;" style="ellipse;whiteSpace=wrap;html=1;" vertex="1" parent="1">
          <mxGeometry x="440" y="110" width="80" height="50" as="geometry" />
        </mxCell>
        <mxCell id="iYjMak04jSnYSCJ5bUZE-13" value="" style="edgeStyle=orthogonalEdgeStyle;rounded=0;orthogonalLoop=1;jettySize=auto;html=1;entryX=1;entryY=0;entryDx=0;entryDy=0;endArrow=none;endFill=0;" edge="1" parent="1" source="iYjMak04jSnYSCJ5bUZE-7" target="iYjMak04jSnYSCJ5bUZE-4">
          <mxGeometry relative="1" as="geometry" />
        </mxCell>
        <mxCell id="iYjMak04jSnYSCJ5bUZE-7" value="DIRECCION" style="ellipse;whiteSpace=wrap;html=1;" vertex="1" parent="1">
          <mxGeometry x="560" y="120" width="80" height="50" as="geometry" />
        </mxCell>
        <mxCell id="iYjMak04jSnYSCJ5bUZE-14" value="" style="edgeStyle=orthogonalEdgeStyle;rounded=0;orthogonalLoop=1;jettySize=auto;html=1;endArrow=none;endFill=0;" edge="1" parent="1" source="iYjMak04jSnYSCJ5bUZE-8" target="iYjMak04jSnYSCJ5bUZE-4">
          <mxGeometry relative="1" as="geometry" />
        </mxCell>
        <mxCell id="iYjMak04jSnYSCJ5bUZE-8" value="TELEFONO" style="ellipse;whiteSpace=wrap;html=1;" vertex="1" parent="1">
          <mxGeometry x="630" y="200" width="80" height="50" as="geometry" />
        </mxCell>
        <mxCell id="iYjMak04jSnYSCJ5bUZE-15" value="" style="edgeStyle=orthogonalEdgeStyle;rounded=0;orthogonalLoop=1;jettySize=auto;html=1;endArrow=none;endFill=0;entryX=1;entryY=1;entryDx=0;entryDy=0;" edge="1" parent="1" source="iYjMak04jSnYSCJ5bUZE-9" target="iYjMak04jSnYSCJ5bUZE-4">
          <mxGeometry relative="1" as="geometry">
            <mxPoint x="560" y="290" as="targetPoint" />
          </mxGeometry>
        </mxCell>
        <mxCell id="iYjMak04jSnYSCJ5bUZE-9" value="TIPO" style="ellipse;whiteSpace=wrap;html=1;" vertex="1" parent="1">
          <mxGeometry x="630" y="290" width="80" height="50" as="geometry" />
        </mxCell>
        <mxCell id="iYjMak04jSnYSCJ5bUZE-18" value="" style="edgeStyle=orthogonalEdgeStyle;rounded=0;orthogonalLoop=1;jettySize=auto;html=1;endArrow=none;endFill=0;" edge="1" parent="1" source="iYjMak04jSnYSCJ5bUZE-17" target="iYjMak04jSnYSCJ5bUZE-2">
          <mxGeometry relative="1" as="geometry" />
        </mxCell>
        <mxCell id="iYjMak04jSnYSCJ5bUZE-17" value="&lt;u&gt;CUIL&lt;/u&gt;" style="ellipse;whiteSpace=wrap;html=1;" vertex="1" parent="1">
          <mxGeometry y="475" width="80" height="50" as="geometry" />
        </mxCell>
        <mxCell id="iYjMak04jSnYSCJ5bUZE-20" value="" style="edgeStyle=orthogonalEdgeStyle;rounded=0;orthogonalLoop=1;jettySize=auto;html=1;endArrow=none;endFill=0;" edge="1" parent="1" source="iYjMak04jSnYSCJ5bUZE-19" target="iYjMak04jSnYSCJ5bUZE-2">
          <mxGeometry relative="1" as="geometry" />
        </mxCell>
        <mxCell id="iYjMak04jSnYSCJ5bUZE-19" value="NOMBRE" style="ellipse;whiteSpace=wrap;html=1;" vertex="1" parent="1">
          <mxGeometry x="20" y="570" width="80" height="50" as="geometry" />
        </mxCell>
        <mxCell id="iYjMak04jSnYSCJ5bUZE-24" value="" style="edgeStyle=orthogonalEdgeStyle;rounded=0;orthogonalLoop=1;jettySize=auto;html=1;endArrow=none;endFill=0;" edge="1" parent="1" source="iYjMak04jSnYSCJ5bUZE-23" target="iYjMak04jSnYSCJ5bUZE-2">
          <mxGeometry relative="1" as="geometry" />
        </mxCell>
        <mxCell id="iYjMak04jSnYSCJ5bUZE-23" value="FECHANAC" style="ellipse;whiteSpace=wrap;html=1;" vertex="1" parent="1">
          <mxGeometry x="130" y="380" width="80" height="50" as="geometry" />
        </mxCell>
        <mxCell id="iYjMak04jSnYSCJ5bUZE-27" style="edgeStyle=orthogonalEdgeStyle;rounded=0;orthogonalLoop=1;jettySize=auto;html=1;exitX=0;exitY=1;exitDx=0;exitDy=0;entryX=0.75;entryY=0;entryDx=0;entryDy=0;endArrow=none;endFill=0;" edge="1" parent="1" source="iYjMak04jSnYSCJ5bUZE-25" target="iYjMak04jSnYSCJ5bUZE-2">
          <mxGeometry relative="1" as="geometry" />
        </mxCell>
        <mxCell id="iYjMak04jSnYSCJ5bUZE-25" value="HABITA" style="rhombus;whiteSpace=wrap;html=1;rounded=0;" vertex="1" parent="1">
          <mxGeometry x="240" y="210" width="80" height="80" as="geometry" />
        </mxCell>
        <mxCell id="iYjMak04jSnYSCJ5bUZE-28" value="MUNICIPALIDAD" style="rounded=0;whiteSpace=wrap;html=1;" vertex="1" parent="1">
          <mxGeometry x="500" y="520" width="120" height="60" as="geometry" />
        </mxCell>
        <mxCell id="iYjMak04jSnYSCJ5bUZE-29" value="" style="edgeStyle=orthogonalEdgeStyle;rounded=0;orthogonalLoop=1;jettySize=auto;html=1;endArrow=none;endFill=0;" edge="1" parent="1" source="iYjMak04jSnYSCJ5bUZE-30" target="iYjMak04jSnYSCJ5bUZE-28">
          <mxGeometry relative="1" as="geometry" />
        </mxCell>
        <mxCell id="iYjMak04jSnYSCJ5bUZE-30" value="&lt;u&gt;NOMBRE&lt;/u&gt;" style="ellipse;whiteSpace=wrap;html=1;" vertex="1" parent="1">
          <mxGeometry x="520" y="650" width="80" height="50" as="geometry" />
        </mxCell>
        <mxCell id="iYjMak04jSnYSCJ5bUZE-31" value="" style="edgeStyle=orthogonalEdgeStyle;rounded=0;orthogonalLoop=1;jettySize=auto;html=1;entryX=1;entryY=0;entryDx=0;entryDy=0;endArrow=none;endFill=0;" edge="1" parent="1" source="iYjMak04jSnYSCJ5bUZE-32" target="iYjMak04jSnYSCJ5bUZE-28">
          <mxGeometry relative="1" as="geometry">
            <Array as="points">
              <mxPoint x="620" y="625" />
            </Array>
          </mxGeometry>
        </mxCell>
        <mxCell id="iYjMak04jSnYSCJ5bUZE-32" value="DIRECCION" style="ellipse;whiteSpace=wrap;html=1;" vertex="1" parent="1">
          <mxGeometry x="700" y="600" width="80" height="50" as="geometry" />
        </mxCell>
        <mxCell id="iYjMak04jSnYSCJ5bUZE-33" value="" style="edgeStyle=orthogonalEdgeStyle;rounded=0;orthogonalLoop=1;jettySize=auto;html=1;endArrow=none;endFill=0;" edge="1" parent="1" source="iYjMak04jSnYSCJ5bUZE-34" target="iYjMak04jSnYSCJ5bUZE-28">
          <mxGeometry relative="1" as="geometry" />
        </mxCell>
        <mxCell id="iYjMak04jSnYSCJ5bUZE-34" value="TELEFONO" style="ellipse;whiteSpace=wrap;html=1;" vertex="1" parent="1">
          <mxGeometry x="710" y="500" width="80" height="50" as="geometry" />
        </mxCell>
        <mxCell id="iYjMak04jSnYSCJ5bUZE-39" value="N" style="text;html=1;align=center;verticalAlign=middle;resizable=0;points=[];autosize=1;strokeColor=none;fillColor=none;" vertex="1" parent="1">
          <mxGeometry x="265" y="438" width="30" height="30" as="geometry" />
        </mxCell>
        <mxCell id="iYjMak04jSnYSCJ5bUZE-40" value="1" style="text;html=1;align=center;verticalAlign=middle;resizable=0;points=[];autosize=1;strokeColor=none;fillColor=none;" vertex="1" parent="1">
          <mxGeometry x="385" y="248" width="30" height="30" as="geometry" />
        </mxCell>
        <mxCell id="iYjMak04jSnYSCJ5bUZE-45" style="edgeStyle=orthogonalEdgeStyle;rounded=0;orthogonalLoop=1;jettySize=auto;html=1;exitX=0.5;exitY=1;exitDx=0;exitDy=0;endArrow=classic;endFill=1;" edge="1" parent="1" source="iYjMak04jSnYSCJ5bUZE-43">
          <mxGeometry relative="1" as="geometry">
            <mxPoint x="500" y="560" as="targetPoint" />
            <Array as="points">
              <mxPoint x="480" y="560" />
              <mxPoint x="500" y="560" />
            </Array>
          </mxGeometry>
        </mxCell>
        <mxCell id="iYjMak04jSnYSCJ5bUZE-43" value="PERTENECE" style="rhombus;whiteSpace=wrap;html=1;rounded=0;" vertex="1" parent="1">
          <mxGeometry x="440" y="350" width="80" height="80" as="geometry" />
        </mxCell>
        <mxCell id="iYjMak04jSnYSCJ5bUZE-46" value="PROPIETARIO" style="rhombus;whiteSpace=wrap;html=1;rounded=0;" vertex="1" parent="1">
          <mxGeometry x="334" y="370" width="80" height="80" as="geometry" />
        </mxCell>
        <mxCell id="iYjMak04jSnYSCJ5bUZE-49" value="N" style="text;html=1;align=center;verticalAlign=middle;resizable=0;points=[];autosize=1;strokeColor=none;fillColor=none;" vertex="1" parent="1">
          <mxGeometry x="295" y="508" width="30" height="30" as="geometry" />
        </mxCell>
        <mxCell id="iYjMak04jSnYSCJ5bUZE-50" value="N" style="text;html=1;align=center;verticalAlign=middle;resizable=0;points=[];autosize=1;strokeColor=none;fillColor=none;" vertex="1" parent="1">
          <mxGeometry x="405" y="288" width="30" height="30" as="geometry" />
        </mxCell>
      </root>
    </mxGraphModel>
  </diagram>
</mxfile>
